<?xml version="1.0" encoding="utf-8"?>
<!-- Generator: Adobe Illustrator 22.1.0, SVG Export Plug-In . SVG Version: 6.00 Build 0)  -->
<svg version="1.1" id="Layer_1" xmlns="http://www.w3.org/2000/svg" xmlns:xlink="http://www.w3.org/1999/xlink" x="0px" y="0px"
	 viewBox="0 0 300 300" style="enable-background:new 0 0 300 300;" xml:space="preserve">
<style type="text/css">
	.st0{fill:#4566C7;}
	.st1{display:none;fill:#FFFFFF;}
	.st2{fill:#FFFFFF;}
</style>
<path class="st0" d="M150,297.7L150,297.7C68.4,297.7,2.3,231.6,2.3,150v0C2.3,68.4,68.4,2.3,150,2.3h0
	c81.6,0,147.7,66.1,147.7,147.7v0C297.7,231.6,231.6,297.7,150,297.7z"/>
<path class="st1" d="M238.2,249.6h-31.6c-1.7-6.4-2.8-13-3.3-19.6c-11,14.7-30.5,23-58.3,23c-58,0-90.3-43.7-90.3-100.7
	c0-60,35.1-105.2,97.8-105.2c51.4,0,81.6,29,86.5,63h-43.2c-4.1-13.4-14.7-29.2-43.8-29.2c-41,0-52.7,34.4-52.7,69.5
	c0,34.4,13.4,68.2,53,68.2c36.9,0,43.7-25.6,43.7-43.5v-1.8h-43.8v-35.4h86.1L238.2,249.6L238.2,249.6z"/>
<g>
	<path class="st2" d="M241.8,193.4c-4.4,9-9.8,17.1-16.1,24.2c-6.3,7.1-13.5,13.2-21.3,18.2c-7.9,5-16.3,8.8-25.4,11.5
		c-9,2.7-18.4,4-28.2,4c-14,0-27.2-2.6-39.5-7.9c-12.3-5.3-23.1-12.5-32.4-21.8c-9.3-9.2-16.6-20-21.9-32.3c-5.3-12.3-8-25.5-8-39.5
		c0-14,2.7-27.2,8-39.5c5.3-12.3,12.6-23.1,21.8-32.3s19.9-16.5,32.2-21.8c12.3-5.3,25.6-7.9,39.8-7.9c28.2,0,52.6,10.4,72.9,31.1
		l-30.3,28.8c-6.9-6.5-13.7-11.2-20.3-14c-6.6-2.8-14.1-4.2-22.3-4.2c-8.5,0-16.3,1.5-23.6,4.6c-7.3,3.1-13.7,7.3-19.2,12.7
		c-5.5,5.4-9.8,11.7-12.8,19.1c-3.1,7.3-4.6,15.1-4.6,23.4c0,8.3,1.6,16.1,4.8,23.4c3.2,7.3,7.4,13.7,12.8,19.2
		c5.4,5.5,11.7,9.8,19,13c7.3,3.2,15.1,4.8,23.3,4.8c15.9,0,29.7-5.7,41.2-17H241.8z M150.4,130H249c0.8,4,1.3,7.5,1.6,10.4
		c0.3,2.9,0.4,6.2,0.4,9.8c0,3.7-0.1,6.9-0.4,9.8c-0.3,2.9-0.8,6.3-1.6,10.4h-98.6V130z"/>
</g>
</svg>
