<svg xmlns="http://www.w3.org/2000/svg" viewBox="0 0 118.73 41.95">
    <defs>
        <style>.cls-1{fill:#4566c7;}</style>
    </defs>
    <title>Asset 4</title>
    <g id="Layer_2" data-name="Layer 2">
        <g id="Layer_1-2" data-name="Layer 1">
            <path class="cls-1" d="M40.24,50.21H33.8a22.53,22.53,0,0,1-.68-4c-2.25,3-6.22,4.69-11.88,4.69C9.43,50.89,2.84,42,2.84,30.38,2.84,18.15,10,8.94,22.77,8.94c10.47,0,16.63,5.91,17.62,12.84h-8.8c-.83-2.72-3-5.94-8.93-5.94-8.36,0-10.74,7-10.74,14.15,0,7,2.73,13.9,10.79,13.9,7.52,0,8.91-5.22,8.91-8.86v-.37H22.7V27.45H40.24Z" transform="translate(-2.84 -8.94)"/>
            <path class="cls-1" d="M80.79,37.67c-1.64,7.59-7.36,13.12-17.55,13.12-12.9,0-19-9.13-19-20.71,0-11.15,6.29-21.14,19.42-21.14,10.83,0,16.08,6.36,17.07,13.16H72c-.85-3.14-3-6.26-8.56-6.26-7.26,0-10.06,6.52-10.06,13.92,0,6.88,2.43,14.13,10.29,14.13,5.74,0,7.55-3.85,8.32-6.22Z" transform="translate(-2.84 -8.94)"/>
            <path class="cls-1" d="M121.43,50.21H115a22.53,22.53,0,0,1-.67-4c-2.26,3-6.23,4.69-11.88,4.69C90.62,50.89,84,42,84,30.38,84,18.15,91.13,8.94,104,8.94c10.47,0,16.63,5.91,17.61,12.84h-8.79c-.84-2.72-3-5.94-8.94-5.94-8.35,0-10.74,7-10.74,14.15,0,7,2.73,13.9,10.79,13.9,7.52,0,8.91-5.22,8.91-8.86v-.37h-8.92V27.45h17.55Z" transform="translate(-2.84 -8.94)"/>
        </g>
    </g>
</svg>