<?xml version="1.0" encoding="utf-8"?>
<!-- Generator: Adobe Illustrator 22.1.0, SVG Export Plug-In . SVG Version: 6.00 Build 0)  -->
<svg version="1.1" id="Layer_1" xmlns="http://www.w3.org/2000/svg" xmlns:xlink="http://www.w3.org/1999/xlink" x="0px" y="0px"
	 viewBox="0 0 300 300" style="enable-background:new 0 0 300 300;" xml:space="preserve">
<style type="text/css">
	.st0{fill:#4566C7;}
	.st1{fill:#FFFFFF;}
</style>
<path class="st0" d="M258.6,300H41.4C18.5,300,0,281.5,0,258.6L0,41.4C0,18.5,18.5,0,41.4,0l217.2,0C281.5,0,300,18.5,300,41.4
	v217.2C300,281.5,281.5,300,258.6,300z"/>
<path class="st1" d="M238.2,249.6h-31.6c-1.7-6.4-2.8-13-3.3-19.6c-11,14.7-30.5,23-58.3,23c-58,0-90.3-43.7-90.3-100.7
	c0-60,35.1-105.2,97.8-105.2c51.4,0,81.6,29,86.5,63h-43.2c-4.1-13.4-14.7-29.2-43.8-29.2c-41,0-52.7,34.4-52.7,69.5
	c0,34.4,13.4,68.2,53,68.2c36.9,0,43.7-25.6,43.7-43.5v-1.8h-43.8v-35.4h86.1V249.6z"/>
</svg>
