<?xml version="1.0" encoding="utf-8"?>
<!-- Generator: Adobe Illustrator 22.1.0, SVG Export Plug-In . SVG Version: 6.00 Build 0)  -->
<svg version="1.1" id="Layer_1" 
	xmlns="http://www.w3.org/2000/svg" 
	xmlns:xlink="http://www.w3.org/1999/xlink" x="0px" y="0px" viewBox="0 0 118.7 42" style="enable-background:new 0 0 118.7 42;" xml:space="preserve">
	<style type="text/css">
	.st0{fill:#4566C7;}
	</style>
	<title>Asset 4</title>
	<g id="Layer_2_1_">
		<g id="Layer_1-2">
			<path class="st0" d="M37.4,41.3H31c-0.3-1.3-0.6-2.6-0.7-4c-2.2,3-6.2,4.7-11.9,4.7C6.6,42,0,33.1,0,21.4C0,9.2,7.2,0,19.9,0
			c10.5,0,16.6,5.9,17.6,12.8h-8.8c-0.8-2.7-3-5.9-8.9-5.9c-8.4,0-10.7,7-10.7,14.2c0,7,2.7,13.9,10.8,13.9c7.5,0,8.9-5.2,8.9-8.9
			v-0.4h-8.9v-7.2h17.5V41.3z"/>
			<path class="st0" d="M78,28.7c-1.6,7.6-7.4,13.1-17.6,13.1c-12.9,0-19-9.1-19-20.7C41.4,10,47.7,0,60.8,0
			c10.8,0,16.1,6.4,17.1,13.2h-8.7c-0.8-3.1-3-6.3-8.6-6.3c-7.3,0-10.1,6.5-10.1,13.9C50.5,27.7,53,35,60.8,35
			c5.7,0,7.6-3.8,8.3-6.2H78z"/>
			<path class="st0" d="M118.6,41.3h-6.4c-0.3-1.3-0.6-2.6-0.7-4c-2.3,3-6.2,4.7-11.9,4.7c-11.8,0-18.5-8.9-18.5-20.5
			c0-12.2,7.1-21.4,20-21.4c10.5,0,16.6,5.9,17.6,12.8H110c-0.8-2.7-3-5.9-8.9-5.9c-8.3,0-10.7,7-10.7,14.2c0,7,2.7,13.9,10.8,13.9
			c7.5,0,8.9-5.2,8.9-8.9v-0.4h-8.9v-7.2h17.6L118.6,41.3z"/>
		</g>
	</g>
</svg>
